<svg width="1024" height="1024" viewBox="0 0 1024 1024" fill="none" xmlns="http://www.w3.org/2000/svg">
<path d="M764.973 512C764.973 651.713 651.714 764.973 512 764.973C372.287 764.973 259.027 651.713 259.027 512C259.027 372.287 372.287 259.027 512 259.027C651.714 259.027 764.973 372.287 764.973 512Z" fill="black" style="fill:black;fill-opacity:1;"/>
<path d="M475.134 817.855C471.033 810.751 477.049 801.93 485.218 802.675C494.042 803.48 502.979 803.892 512.012 803.892C521.045 803.892 529.982 803.481 538.805 802.676C546.974 801.932 552.99 810.753 548.889 817.857L520.438 867.135C516.694 873.622 507.331 873.622 503.586 867.135L475.134 817.855Z" fill="black" style="fill:black;fill-opacity:1;"/>
<path d="M327.147 758.444C327.147 750.232 336.786 745.604 343.487 750.35C358.005 760.635 373.503 769.626 389.815 777.156C397.266 780.596 398.071 791.252 390.964 795.356L341.742 823.776C335.256 827.521 327.147 822.84 327.147 815.35V758.444Z" fill="black" style="fill:black;fill-opacity:1;"/>
<path d="M696.875 815.338C696.875 822.828 688.767 827.509 682.28 823.764L633.068 795.351C625.961 791.247 626.765 780.591 634.217 777.151C650.525 769.623 666.02 760.634 680.535 750.352C687.236 745.606 696.875 750.235 696.875 758.446V815.338Z" fill="black" style="fill:black;fill-opacity:1;"/>
<path d="M823.764 682.28C827.509 688.766 822.828 696.875 815.338 696.875H758.45C750.238 696.875 745.61 687.235 750.357 680.535C760.638 666.021 769.627 650.528 777.156 634.221C780.596 626.771 791.251 625.966 795.355 633.073L823.764 682.28Z" fill="black" style="fill:black;fill-opacity:1;"/>
<path d="M228.657 633.051C232.76 625.943 243.417 626.748 246.857 634.199C254.388 650.514 263.381 666.015 273.668 680.535C278.415 687.235 273.786 696.875 265.575 696.875H208.662C201.172 696.875 196.491 688.767 200.236 682.28L228.657 633.051Z" fill="black" style="fill:black;fill-opacity:1;"/>
<path d="M206.153 475.127C213.257 471.026 222.079 477.042 221.335 485.211C220.531 494.033 220.12 502.969 220.12 512C220.12 521.039 220.532 529.983 221.337 538.812C222.082 546.981 213.26 552.998 206.156 548.897L156.865 520.438C150.378 516.693 150.378 507.331 156.865 503.586L206.153 475.127Z" fill="black" style="fill:black;fill-opacity:1;"/>
<path d="M867.135 503.586C873.622 507.331 873.622 516.693 867.135 520.438L817.867 548.882C810.763 552.983 801.942 546.966 802.687 538.798C803.492 529.973 803.904 521.035 803.904 512C803.904 502.974 803.493 494.043 802.69 485.225C801.946 477.057 810.766 471.041 817.87 475.142L867.135 503.586Z" fill="black" style="fill:black;fill-opacity:1;"/>
<path d="M265.56 327.145C273.772 327.145 278.4 336.783 273.654 343.484C263.369 358.004 254.377 373.505 246.847 389.819C243.407 397.27 232.75 398.076 228.646 390.968L200.224 341.739C196.479 335.253 201.161 327.145 208.651 327.145H265.56Z" fill="black" style="fill:black;fill-opacity:1;"/>
<path d="M815.349 327.145C822.839 327.145 827.521 335.253 823.775 341.74L795.363 390.946C791.259 398.053 780.604 397.248 777.164 389.797C769.637 373.491 760.65 357.998 750.37 343.484C745.624 336.783 750.253 327.145 758.464 327.145H815.349Z" fill="black" style="fill:black;fill-opacity:1;"/>
<path d="M390.962 228.642C398.07 232.746 397.265 243.402 389.814 246.842C373.502 254.373 358.003 263.365 343.484 273.65C336.784 278.396 327.145 273.768 327.145 265.556V208.65C327.145 201.16 335.253 196.479 341.74 200.224L390.962 228.642Z" fill="black" style="fill:black;fill-opacity:1;"/>
<path d="M696.877 265.554C696.877 273.766 687.238 278.394 680.538 273.648C666.022 263.366 650.526 254.376 634.218 246.847C626.766 243.407 625.961 232.751 633.069 228.647L682.283 200.236C688.769 196.491 696.877 201.172 696.877 208.662V265.554Z" fill="black" style="fill:black;fill-opacity:1;"/>
<path d="M548.888 206.141C552.99 213.245 546.973 222.066 538.805 221.323C529.981 220.519 521.045 220.108 512.012 220.108C502.979 220.108 494.042 220.52 485.218 221.324C477.049 222.068 471.033 213.247 475.134 206.143L503.586 156.865C507.331 150.378 516.693 150.378 520.438 156.865L548.888 206.141Z" fill="black" style="fill:black;fill-opacity:1;"/>
</svg>
